<svg viewBox="0 0 50 50" xmlns="http://www.w3.org/2000/svg" xmlns:xlink="http://www.w3.org/1999/xlink" version="1.1">
    <g transform="translate(25 25) scale(1.4285714285714286)" id="lockup4-icon">
        <g fill="#FFFFFF">
            <g transform="translate(-17.5 -17.5) scale(0.3431372549019608)" id="container">
                <g fill="#FFFFFF">
                    <polygon vector-effect="non-scaling-stroke" points="1 101 101 101 101 1 1 1"></polygon>
                </g>
            </g>
            <g transform="translate(-13.190107450077418 -13.089996675821471) scale(0.031157517759062475)" id="icon">
                <g fill="#232323">
                    <path d="M489.24 156.72L610.2 273.58c54.92 53.07-25.26 135.79-79.98 82.92l-18.72-18.08v196c0 76.28-115.34 76.28-115.34 0v-87.27c-45.6 7.81-99.61 4.2-141.83-14.73-46.1-20.69-74.23-58.19-74.23-108.94v-95.47c0-57.72 36.41-97.26 89.06-114.96 69.89-23.52 166.78-7.79 220.08 43.67zm70.5 400.03c-31.74 0-31.74-48.27 0-48.27h83.02c31.75 0 31.75 48.27 0 48.27h-83.02zm-49.39 67.74c-22.45-22.45 11.69-56.59 34.14-34.14l58.71 58.7c22.45 22.45-11.69 56.58-34.14 34.14l-58.71-58.7zm-82.81 12.96c0-31.74 48.27-31.74 48.27 0v83.02c0 31.75-48.27 31.75-48.27 0v-83.02zm-67.74-49.39c22.45-22.45 56.59 11.69 34.14 34.14l-58.7 58.71c-22.45 22.45-56.59-11.69-34.14-34.14l58.7-58.71zm-12.96-82.81c31.74 0 31.74 48.27 0 48.27h-83.03c-31.74 0-31.74-48.27 0-48.27h83.03zm229.97-196.98L455.86 191.42c-40.26-38.86-118.59-50.5-171.42-32.75-32.77 11.02-56.07 32.78-56.07 69.34v95.47c0 31.7 16.86 52.13 45.58 65.01 38.23 17.14 97.05 18.55 137 5.76 15.72-6.59 33.49 4.86 33.49 22.25v117.92c0 12.43 18.78 12.43 18.78 0V283.3c0-22.54 24.82-34.43 40.83-19.03l59.55 57.53c9.04 8.72 21.95-5.08 13.21-13.53z"
                          fill-rule="nonzero"></path>
                </g>
            </g>
        </g>
    </g>
</svg>